<svg xmlns="http://www.w3.org/2000/svg" xmlns:xlink="http://www.w3.org/1999/xlink" width="104" height="120" viewBox="0 0 104 120">
  <defs>
    <linearGradient id="linear-gradient" x1="0.01" y1="0.016" x2="0.991" y2="1" gradientUnits="objectBoundingBox">
      <stop offset="0" stop-color="#fff"/>
      <stop offset="1" stop-color="#fff"/>
    </linearGradient>
  </defs>
  <path id="Intersection_8" data-name="Intersection 8" d="M322-2090l-52-30v-60l52-30,52,30v60Zm-8.971-76.565a23.47,23.47,0,0,0-8.1,3.937,23.3,23.3,0,0,0-6.176,6.973,23.214,23.214,0,0,0-2.975,8.814,23.231,23.231,0,0,0,.627,8.955,23.27,23.27,0,0,0,3.952,8.068,23.316,23.316,0,0,0,6.53,5.873c.045.031.087.058.132.084l.076.041.038.019a1.95,1.95,0,0,0,.864.2,1.96,1.96,0,0,0,1.1-.339,1.926,1.926,0,0,0,.965-.835l5.512-9.508a23.327,23.327,0,0,0,6.7,1.87,23.644,23.644,0,0,0,2.9.179,23.616,23.616,0,0,0,6.092-.8,23.421,23.421,0,0,0,8.1-3.937,23.27,23.27,0,0,0,6.175-6.973,23.178,23.178,0,0,0,2.975-8.814,23.245,23.245,0,0,0-.626-8.954,23.3,23.3,0,0,0-3.952-8.068,23.339,23.339,0,0,0-6.53-5.874c-.05-.033-.093-.06-.133-.084l-.04-.021-.011-.005-.023-.014-.037-.021,0,0a1.938,1.938,0,0,0-.863-.2,1.966,1.966,0,0,0-1.7.977,1.927,1.927,0,0,0-.186.433l-5.441,9.388a23.453,23.453,0,0,0-6.958-1.987,23.928,23.928,0,0,0-2.9-.178A23.674,23.674,0,0,0,313.029-2166.566ZM322-2090h0Zm-19.85-63.7a19.71,19.71,0,0,1,17.033-9.737,19.375,19.375,0,0,1,7.826,1.636l-4.446,7.671a4.7,4.7,0,0,1,3.443,1.864l10.988-18.956a19.494,19.494,0,0,1,5.16,25.329,19.709,19.709,0,0,1-17.032,9.738,19.4,19.4,0,0,1-7.57-1.526l4.131-7.127a4.7,4.7,0,0,1-3.343-2.038l-5,8.629a2.014,2.014,0,0,0-.282.375,2.015,2.015,0,0,0-.184.43l-5.338,9.209h0A19.443,19.443,0,0,1,302.149-2153.7Zm17.743,4.243a2.349,2.349,0,0,0,2.352,2.341,2.348,2.348,0,0,0,2.35-2.341,2.349,2.349,0,0,0-2.35-2.342A2.35,2.35,0,0,0,319.892-2149.462Z" transform="translate(-270 2210)" fill="url(#linear-gradient)"/>
</svg>
