<svg id="Elliptix" xmlns="http://www.w3.org/2000/svg" width="80.754" height="80" viewBox="0 0 80.754 80">
  <path id="Path_12" data-name="Path 12" d="M17.541,79.692l-.058-.029-.115-.063c-.073-.042-.138-.084-.2-.128A35.764,35.764,0,0,1,35.774,13.178a36.1,36.1,0,0,1,4.4.272,35.534,35.534,0,0,1,10.581,3.033L59.035,2.151A2.981,2.981,0,0,1,61.9,0a2.935,2.935,0,0,1,1.313.307l0,0,.056.033L63.385.4c.069.04.136.083.2.128A35.721,35.721,0,0,1,75.956,48.937,35.811,35.811,0,0,1,44.984,66.821a35.943,35.943,0,0,1-4.407-.273,35.423,35.423,0,0,1-10.194-2.855L22,78.209a2.941,2.941,0,0,1-1.468,1.275A2.971,2.971,0,0,1,18.855,80,2.93,2.93,0,0,1,17.541,79.692ZM9.959,34.04a29.757,29.757,0,0,0,8.189,38.927l8.118-14.059a3,3,0,0,1,.281-.657,3.035,3.035,0,0,1,.428-.572L34.581,44.5a7.141,7.141,0,0,0,5.084,3.111L33.383,58.5a29.386,29.386,0,0,0,11.511,2.328A29.769,29.769,0,0,0,62.948,7.288L46.239,36.229A7.143,7.143,0,0,0,41,33.383l6.761-11.711a29.364,29.364,0,0,0-11.9-2.5A29.952,29.952,0,0,0,9.959,34.04Zm26.982,6.477a3.575,3.575,0,1,1,3.576,3.575A3.575,3.575,0,0,1,36.941,40.517Z" transform="translate(0)" fill="#000"/>
</svg>
